<svg xmlns="http://www.w3.org/2000/svg" xmlns:xlink="http://www.w3.org/1999/xlink" width="1083.11" height="1068.11" viewBox="0 0 1083.11 1068.11"><defs><path id="a" d="M0 .003h1083.108V1068.11H0z"/></defs><clipPath id="b"><use xlink:href="#a" overflow="visible"/></clipPath><path clip-path="url(#b)" fill="#A8A8A8" d="M459.2 100.145c15.833 20.307 28.878 42.1 35.43 67.275 7.444 28.6 6.877 57.1-1.643 85.387-1.246 4.137-3.134 8.12-5.058 12.008-4.807 9.71-10.7 17.777-21.56 17.777-1.865 0-3.875-.238-6.053-.746-.5-.117-1.033-.17-1.568-.17-.575 0-1.15.062-1.69.177-2.277.485-4.4.714-6.383.714-11.808 0-18.7-8.138-24.018-18.964-16.158-32.888-14.746-65.79.766-98.267 5.73-11.995 13.874-22.837 19.578-34.84 4.57-9.62 7.116-20.198 10.56-30.35h1.637m0-18h-1.636c-7.712 0-14.568 4.912-17.046 12.216-1.14 3.362-2.17 6.7-3.163 9.928-2.06 6.684-4.004 12.998-6.61 18.48-2.47 5.2-5.622 10.394-8.958 15.89-3.62 5.968-7.365 12.138-10.604 18.92-18.535 38.807-18.763 77.15-.68 113.96 4.112 8.37 8.517 14.45 13.865 19.14 7.377 6.468 16.475 9.887 26.31 9.887 2.58 0 5.247-.232 7.957-.693 2.633.477 5.226.718 7.735.718 23.936 0 34.29-20.92 37.69-27.793 2.107-4.258 4.494-9.263 6.162-14.803 9.462-31.414 10.077-63.414 1.828-95.11-6.458-24.813-18.74-48.266-38.653-73.81-3.41-4.374-8.65-6.932-14.196-6.932M638.812 309.674c85.22-.004 152.45 37.878 205.93 101.562 53.23 63.384 77.213 137.615 73.245 220.122-2.194 45.648-21.123 85.197-51.685 118.992-39.242 43.395-89.112 67.914-145.414 80.617-28.364 6.398-56.596 9.61-84.673 9.61-39.452 0-78.604-6.34-117.435-19.085-1.955-.64-4.376-4.14-4.25-6.16.904-14.404 2.103-28.812 3.99-43.115.388-2.94 3.512-6.452 6.314-7.996 38.494-21.202 40.942-71.916 4.256-96.146-4.11-2.715-5.205-5.463-5.028-9.915.676-16.888 1.32-33.782 1.504-50.68.06-5.53 3.113-5.75 7.18-6.443 18.817-3.212 36.302-9.437 50.256-23.277 17.74-17.6 18.77-40.423 2.05-59.072-14.99-16.717-35.117-23.01-57.372-26.498-.2-2.045-.59-3.648-.477-5.216 1.898-26.71-5.287-52.377-8.868-78.46-.423-3.086-.8-6.857.536-9.394 8.36-15.845 15.782-32.465 26.2-46.89 22.798-31.57 56.19-42.54 93.636-42.555h.106m28.91 167.34c.846 0 1.694-.018 2.546-.058 28.086-1.295 52.28-26.002 52.103-55.452-.19-31.28-24.488-55.943-54.85-55.943-.357 0-.714.004-1.074.01-30.323.58-54.776 25.52-54.865 55.67-.094 31.812 26.416 55.774 56.14 55.774M779 616.776c30.367 0 55.836-25.593 55.642-56.077-.19-30.223-24.974-54.866-55.35-55.038h-.338c-30.998 0-55.407 24.125-55.526 54.96-.12 30.864 24.3 55.81 54.97 56.15.2.003.403.004.602.004m-83.63 167.587h.255c29.935-.13 54.875-25.355 54.88-55.512.007-31.623-24.588-55.725-56.84-55.725h-.105c-29.542.047-53.936 25.147-53.784 55.34.16 31.526 24.426 55.898 55.593 55.898m-56.542-492.69v18l-.005-18h-.115c-47.864.02-84.275 16.847-108.23 50.02-8.69 12.035-15.27 25.01-21.63 37.556-1.925 3.795-3.916 7.72-5.894 11.47-4.146 7.863-3 16.222-2.448 20.24 1.066 7.76 2.427 15.437 3.743 22.86 3.19 17.99 6.204 34.98 5.003 51.877-.208 2.924.123 5.31.365 7.05.065.47.122.876.153 1.2.802 8.165 7.023 14.755 15.128 16.025 23.276 3.648 36.822 9.654 46.755 20.732 7.136 7.958 12.698 20.365-1.324 34.276-9.585 9.508-22.11 15.156-40.606 18.313l-.537.09c-2.883.48-7.71 1.287-12.315 4.642-3.422 2.493-9.18 8.31-9.3 19.257-.18 16.415-.807 33.093-1.49 50.157-.44 10.994 3.966 19.625 13.093 25.653 11.977 7.91 18.542 20 18.013 33.172-.537 13.39-8.203 25.123-21.032 32.19-6.293 3.466-14.12 11.152-15.474 21.406-1.726 13.086-3.032 27.177-4.11 44.345-.642 10.232 6.805 21.175 16.602 24.39 40.396 13.26 81.797 19.983 123.048 19.983 29.247 0 59.07-3.383 88.635-10.054 30.85-6.96 59.002-17.225 83.677-30.508 26.967-14.518 50.896-33.222 71.126-55.593 35.08-38.79 54.026-82.597 56.314-130.202 4.235-88.083-21.82-166.328-77.44-232.56-29.04-34.58-61.56-61.2-96.657-79.118-37.525-19.155-78.923-28.868-123.045-28.868m28.896 167.342c-10.094 0-20.04-4.17-27.288-11.438-7.027-7.047-10.88-16.38-10.852-26.283.06-20.41 16.752-37.335 37.21-37.726.245-.006.486-.008.73-.008 20.533 0 36.72 16.715 36.85 38.052.058 9.448-3.668 18.598-10.49 25.765-6.624 6.958-15.533 11.185-24.44 11.596-.57.027-1.15.04-1.72.04M779 598.776l-.402-.002c-10.03-.11-19.394-4.097-26.37-11.222-7.004-7.155-10.84-16.694-10.8-26.86.04-10.09 3.89-19.437 10.843-26.316 6.982-6.91 16.458-10.714 26.683-10.714h.23c20.528.117 37.33 16.783 37.458 37.152.064 9.91-3.893 19.386-11.14 26.68-7.23 7.275-16.643 11.282-26.502 11.282m-83.63 167.587c-21.323 0-37.483-16.332-37.594-37.988-.05-10.013 3.84-19.472 10.954-26.634 6.786-6.83 15.615-10.6 24.86-10.613h.073c10.86 0 20.774 3.855 27.92 10.857 7.045 6.907 10.925 16.447 10.923 26.864-.004 20.25-16.93 37.43-36.958 37.515h-.178zM301.814 440.862c28.62 0 56.775 5.056 84.366 11.94-.964 109.227 1.526 217.58 9.15 327.596-13.478-8.624-26.316-16.16-38.434-24.716-43.747-30.884-82.637-66.772-112.682-111.532-19.954-29.728-34.965-61.624-39.153-97.51-2.973-25.488-1.63-50.718 13.404-73.126 12.982-19.35 32.572-27.998 54.474-30.833 9.673-1.252 19.303-1.818 28.876-1.818m13.94 175.924h.2c30.595-.115 55.417-25.167 55.368-55.884-.048-30.545-24.505-55.215-54.704-55.215h-.138c-31.99.08-56.758 24.8-56.445 56.336.296 29.687 25.834 54.763 55.718 54.763m-13.937-193.924v18-18c-10.614 0-21.106.662-31.19 1.968-29.92 3.874-52.5 16.88-67.11 38.655-20.066 29.91-18.932 62.973-16.333 85.24 4.063 34.824 17.83 69.32 42.086 105.457 28.703 42.762 67.054 80.772 117.245 116.204 8.666 6.118 17.362 11.54 26.57 17.282 4.09 2.552 8.324 5.192 12.542 7.892 2.953 1.89 6.326 2.838 9.702 2.838 3.172 0 6.347-.837 9.18-2.52 5.85-3.47 9.246-9.94 8.776-16.725-7.154-103.236-10.132-209.935-9.107-326.192.073-8.32-5.568-15.607-13.642-17.622-34.107-8.51-62.3-12.476-88.722-12.476m13.937 175.924c-9.708 0-19.063-3.938-26.34-11.088-7.243-7.116-11.284-16.298-11.38-25.854-.1-10.27 3.678-19.808 10.64-26.857 7.17-7.26 17.06-11.272 27.85-11.3h.095c20.207 0 36.672 16.71 36.704 37.245.033 20.797-16.76 37.778-37.437 37.855h-.132z"/><path clip-path="url(#b)" fill="#A8A8A8" d="M499.954 477.138c0 6.193.12 12.083-.018 17.968-1.66 71.41-1.824 142.9-5.534 214.205-2.883 55.39-9.597 110.62-15.91 165.772-1.925 16.828-7.912 33.233-12.583 49.68-1.358 4.777-4.6 9.02-8.14 15.705-3.496-6.2-7.028-10.24-8.172-14.872-5.85-23.687-13.154-47.273-16.094-71.365-5.767-47.263-10.052-94.773-12.947-142.303-2.734-44.875-3.065-89.902-4.132-134.87-.704-29.71-.845-59.435-1.226-89.154-.042-3.24-.007-6.48-.007-10.764h84.76m0-18.002h-84.76c-9.94 0-18 8.06-18 18 0 1.414-.004 2.712-.008 3.934-.007 2.556-.014 4.763.016 7.06.114 8.882.207 17.763.3 26.644.213 20.535.433 41.77.93 62.707.25 10.505.462 21.208.668 31.558.676 34.05 1.377 69.256 3.492 103.98 2.944 48.325 7.333 96.568 13.046 143.39 2.36 19.333 7.273 38.054 12.025 56.16 1.497 5.702 3.045 11.6 4.462 17.34 1.472 5.954 4.418 10.546 7.018 14.6 1.036 1.612 2.015 3.138 2.95 4.796 3.192 5.664 9.19 9.16 15.678 9.16.08 0 .157 0 .236-.002 6.58-.086 12.59-3.756 15.67-9.57 1.02-1.926 2.06-3.693 3.064-5.403 2.44-4.15 4.962-8.444 6.486-13.812 1.08-3.802 2.224-7.57 3.435-11.563 3.966-13.072 8.068-26.588 9.716-40.987.586-5.118 1.176-10.237 1.765-15.358 5.7-49.515 11.593-100.715 14.237-151.523 2.627-50.482 3.5-101.744 4.344-151.317.355-20.792.72-42.292 1.21-63.404.1-4.263.074-8.514.048-12.625-.012-1.895-.024-3.812-.024-5.76 0-9.943-8.06-18.002-18-18.002"/><path clip-path="url(#b)" fill="#A8A8A8" d="M471.725 295.543l27.928 167.526h-84.2c9.32-55.915 18.55-111.306 27.918-167.527h28.355m0-18H443.37c-8.798 0-16.308 6.362-17.754 15.04l-9.627 57.77L397.7 460.11c-.87 5.22.6 10.557 4.02 14.594 3.42 4.037 8.443 6.365 13.734 6.365h84.2c5.29 0 10.314-2.33 13.734-6.367s4.89-9.375 4.02-14.594L489.48 292.582c-1.447-8.68-8.956-15.04-17.755-15.04"/></svg>