<svg xmlns="http://www.w3.org/2000/svg" xmlns:xlink="http://www.w3.org/1999/xlink" width="1083.11" height="1068.11" viewBox="0 0 1083.11 1068.11"><defs><path id="a" d="M0 .003h1083.108V1068.11H0z"/></defs><clipPath id="b"><use xlink:href="#a" overflow="visible"/></clipPath><path clip-path="url(#b)" fill="#9B9B9B" stroke="#9A9A9A" stroke-miterlimit="10" d="M795.805 341.164c21.395 0 38.898 17.504 38.898 38.898v353.48c0 21.392-17.504 38.895-38.898 38.895H293.833c-21.394 0-38.898-17.504-38.898-38.896V380.063c0-21.394 17.504-38.898 38.898-38.898h501.972m0-15.222H293.833c-29.84 0-54.118 24.278-54.118 54.12V733.54c0 29.84 24.277 54.118 54.118 54.118h501.972c29.84 0 54.12-24.277 54.12-54.118V380.062c0-29.842-24.28-54.12-54.12-54.12"/><path clip-path="url(#b)" fill="none" stroke="#9B9B9B" stroke-width="18" stroke-miterlimit="10" d="M275.478 342.427c7.383 8.112 29.453 30.94 36.854 39.035 58.652 64.163 117.3 128.33 175.977 192.47 8.36 9.14 16.563 18.48 28.14 23.87 28.47 13.254 58.01 7.05 80.67-17.65C657.88 513.92 758.082 407.905 818.724 341.56M263.97 758.388l205.522-205.52M622.285 552.867l204.452 204.45"/></svg>