<svg xmlns="http://www.w3.org/2000/svg" width="1083.11" height="1068.11" viewBox="0 0 1083.11 1068.11"><g fill="#A8A8A8" stroke="#FFF" stroke-miterlimit="10"><path d="M535.39 247.015c163.394 0 295.85 132.456 295.85 295.85 0 163.394-132.456 295.85-295.85 295.85-163.393 0-295.85-132.456-295.85-295.85 0-163.394 132.457-295.85 295.85-295.85m0-18c-42.362 0-83.466 8.3-122.17 24.67-37.375 15.81-70.938 38.437-99.755 67.255-28.818 28.817-51.445 62.38-67.253 99.755-16.37 38.704-24.672 79.808-24.672 122.17 0 42.36 8.3 83.465 24.672 122.17 15.808 37.375 38.435 70.938 67.253 99.755 28.817 28.817 62.38 51.444 99.755 67.254 38.704 16.37 79.808 24.67 122.17 24.67 42.362 0 83.466-8.3 122.17-24.67 37.374-15.81 70.937-38.437 99.756-67.254 28.816-28.817 51.443-62.38 67.253-99.755 16.37-38.705 24.67-79.81 24.67-122.17 0-42.362-8.3-83.466-24.67-122.17-15.81-37.375-38.438-70.938-67.254-99.755-28.818-28.818-62.382-51.445-99.757-67.254-38.704-16.37-79.808-24.67-122.17-24.67"/><path d="M535.39 526.71c8.922 0 16.156 7.232 16.156 16.155 0 8.922-7.233 16.155-16.156 16.155s-16.156-7.233-16.156-16.155c0-8.923 7.234-16.156 16.156-16.156m0-15c-17.18 0-31.156 13.975-31.156 31.155s13.977 31.155 31.156 31.155 31.156-13.977 31.156-31.155c0-17.18-13.977-31.156-31.156-31.156M635.4 526.71c8.923 0 16.155 7.232 16.155 16.155 0 8.922-7.232 16.155-16.155 16.155s-16.156-7.233-16.156-16.155c0-8.923 7.234-16.156 16.156-16.156m0-15c-17.18 0-31.156 13.975-31.156 31.155S618.22 574.02 635.4 574.02c17.18 0 31.155-13.977 31.155-31.155 0-17.18-13.976-31.156-31.155-31.156M435.38 526.71c8.923 0 16.156 7.232 16.156 16.155 0 8.922-7.233 16.155-16.156 16.155-8.922 0-16.156-7.233-16.156-16.155 0-8.923 7.234-16.156 16.156-16.156m0-15c-17.18 0-31.156 13.975-31.156 31.155S418.2 574.02 435.38 574.02c17.18 0 31.156-13.977 31.156-31.155 0-17.18-13.977-31.156-31.156-31.156"/></g></svg>