<svg xmlns="http://www.w3.org/2000/svg" xmlns:xlink="http://www.w3.org/1999/xlink" width="1083.11" height="1068.11" viewBox="0 0 1083.11 1068.11"><defs><path id="a" d="M0 .003h1083.108V1068.11H0z"/></defs><clipPath id="b"><use xlink:href="#a" overflow="visible"/></clipPath><path clip-path="url(#b)" fill="#9D9D9C" d="M624.07 168.16c70.49.023 183.38 323.35 194.82 421.44 6.53 56.01-7.2 69.284-21.687 69.284-13.058 0-26.73-10.787-26.73-10.787s-150.62-42.06-261.807-42.057c-6.95 0-13.765.165-20.36.516-4.07 18.527-8.353 40.845-7.81 50.54 1.008 18 28.99 15 25.99 25.5s-3 29.998 1.5 40.497c4.5 10.5 25.5 18 15 33-10.5 14.998 1.5 28.497 12 38.997 10.5 10.498 10.5 38.998-13.5 50.996-6.17 3.087-12.24 4.387-18.086 4.387-16.887 0-31.883-10.857-41.91-20.885-13.5-13.5-57-172.49-82.13-199.074-20.572 4.71-36.564 6.975-49.25 6.975-21.717 0-33.74-6.647-42.402-19.064-17.79-25.5-31.818-60.74 34.288-107.778 80.996-57.634 284.986-335.027 284.986-335.027 5.328-5.09 11.048-7.46 17.087-7.46m149.516 452.155c1.655 0 3.224-.26 4.703-.776 2.867-1.004 4.377-4.142 3.374-7.01-.792-2.266-2.92-3.683-5.192-3.683-.603 0-1.214.1-1.814.31-.305.106-.677.165-1.12.165-4.57 0-16.55-6.292-36.457-31.142-24.208-30.222-53.485-79.533-84.67-142.604-35.704-72.217-40.33-130.22-37.925-166.16 2.597-38.815 13.726-60.966 13.884-61.275 1.392-2.695.335-6.01-2.36-7.405-.808-.42-1.672-.617-2.523-.617-1.99 0-3.91 1.083-4.888 2.973-.497.96-12.183 23.934-15.04 64.873-2.614 37.424 2.028 97.73 38.99 172.488 31.98 64.684 60.897 113.336 85.946 144.607 18.773 23.435 33.905 35.26 45.09 35.258m-383.977-15.8c1.974 0 3.882-1.067 4.868-2.936 1.418-2.69.388-6.015-2.298-7.432-41.6-21.942-35.663-82.305-35.598-82.912.325-3.018-1.856-5.73-4.874-6.057-.203-.023-.404-.034-.603-.034-2.767 0-5.153 2.09-5.46 4.906-.074.692-1.796 17.177 2.27 36.888 5.494 26.644 19.027 46.332 39.132 56.937.818.433 1.696.637 2.562.637m-31.5 3c1.96 0 3.86-1.05 4.85-2.9 1.436-2.678.43-6.012-2.247-7.447-16.053-8.608-25.317-23.016-27.537-42.82-1.72-15.336 1.605-28.304 1.64-28.434.77-2.934-.98-5.94-3.914-6.716-.47-.124-.94-.183-1.405-.183-2.434 0-4.666 1.626-5.32 4.094-.156.596-3.838 14.79-1.973 32.094 2.53 23.466 14.047 41.33 33.31 51.66.827.442 1.718.652 2.595.652m-28.62 4.086c1.98 0 3.895-1.073 4.877-2.95 1.41-2.69.372-6.014-2.32-7.423-11.187-5.86-17.447-15.93-18.604-29.93-.916-11.077 1.802-20.55 1.83-20.643.856-2.91-.805-5.964-3.714-6.826-.523-.154-1.05-.23-1.568-.23-2.374.002-4.56 1.55-5.27 3.94-4.594 15.508-5.862 48.722 22.222 63.433.814.428 1.686.63 2.546.63m294.585-461.44H624.062c-10.79 0-20.995 4.305-29.517 12.447l-1.135 1.085-.93 1.265c-.51.69-51.547 70.017-111.757 145.423-78.906 98.82-137.402 163-169.164 185.602-34.045 24.224-52.36 48.465-55.992 74.108-3.56 25.13 8.212 45.5 17.376 58.635 12.74 18.26 30.903 26.764 57.164 26.764 11.547 0 24.898-1.562 41.39-4.872 3.538 6.245 8.778 17.008 16.133 35.496 8.937 22.465 18.504 49.957 26.943 74.213 19.278 55.402 26.182 73.984 34.187 81.99 11.932 11.932 31.098 26.156 54.64 26.156 9 0 17.793-2.115 26.135-6.286 15.93-7.965 26.662-22.376 29.447-39.54 2.5-15.398-1.82-30.835-11.27-40.285-2.684-2.683-8.266-8.265-10.232-12.568-.812-1.776-.744-1.96.25-3.38 6.84-9.77 8.033-20.702 3.36-30.784-3.167-6.838-8.338-11.755-12.494-15.704-1.406-1.337-3.487-3.316-4.216-4.29-2.352-6.052-2.686-20.75-.588-28.095 2.627-9.192-.56-18.625-8.32-24.615-3.746-2.894-7.964-4.604-11.685-6.115-1.545-.627-3.872-1.57-5.332-2.36.09-3.45.84-11.78 4.554-30.368 1.864-.025 3.75-.04 5.655-.04 98.772 0 232.01 34.675 253.883 40.556 6.317 4.358 19.847 12.288 34.653 12.288 10.93 0 20.472-4.23 27.593-12.23 12.648-14.208 16.452-38.72 11.973-77.14-6.215-53.3-39.106-161.758-76.508-252.283-21.187-51.278-42.807-94.435-62.523-124.806-11.55-17.79-22.774-31.733-33.364-41.44-13.617-12.49-27.175-18.822-40.295-18.826"/></svg>