<?xml version="1.0" encoding="utf-8"?>
<!-- Generator: Adobe Illustrator 16.0.0, SVG Export Plug-In . SVG Version: 6.00 Build 0)  -->
<!DOCTYPE svg PUBLIC "-//W3C//DTD SVG 1.1//EN" "http://www.w3.org/Graphics/SVG/1.1/DTD/svg11.dtd">
<svg version="1.1" id="Layer_1" xmlns="http://www.w3.org/2000/svg" xmlns:xlink="http://www.w3.org/1999/xlink" x="0px" y="0px"
	 width="1083.11px" height="1068.11px" viewBox="0 0 1083.11 1068.11" enable-background="new 0 0 1083.11 1068.11"
	 xml:space="preserve">
<rect x="237.807" y="481.585" fill="none" stroke="#A8A8A8" stroke-width="18" stroke-miterlimit="10" width="442.023" height="186.14"/>
<g>
	<g>
		<defs>
			<rect id="SVGID_1_" y="0.003" width="1083.108" height="1068.107"/>
		</defs>
		<clipPath id="SVGID_2_">
			<use xlink:href="#SVGID_1_"  overflow="visible"/>
		</clipPath>
		<path clip-path="url(#SVGID_2_)" fill="none" stroke="#A8A8A8" stroke-width="18" stroke-miterlimit="10" d="M680.276,467.584
			c0-13.181,0.045-25.474-0.012-37.766c-0.08-17.461-10.674-28.071-27.988-28.076c-44.764-0.012-89.527-0.005-134.291-0.006
			c-2.678,0-5.354,0-8.031,0c2.128-2.046,4.195-2.722,6.28-3.338c38.358-11.352,76.717-22.699,115.081-34.038
			c10.936-3.233,17.135-9.794,17.916-19.021c1.365-16.128-12.443-27.025-28.717-22.252c-46.16,13.539-92.258,27.293-138.383,40.952
			c-12.887,3.816-25.784,7.595-39.558,11.651c0-16.156,0.037-31.356-0.01-46.556c-0.053-16.935-10.709-27.752-27.563-27.772
			c-50.175-0.057-100.35-0.053-150.524-0.001c-15.884,0.016-26.8,10.956-26.824,26.95c-0.07,44.764-0.029,89.527-0.002,134.292
			c0.001,1.631,0.322,3.262,0.503,4.98H680.276z"/>
	</g>
	<g>
		<defs>
			<rect id="SVGID_3_" y="0.003" width="1083.108" height="1068.107"/>
		</defs>
		<clipPath id="SVGID_4_">
			<use xlink:href="#SVGID_3_"  overflow="visible"/>
		</clipPath>
		<path clip-path="url(#SVGID_4_)" fill="none" stroke="#A8A8A8" stroke-width="18" stroke-miterlimit="10" d="M237.626,680.725
			c0,2.807,0,4.967,0,7.129c0.001,23.375-0.034,46.752,0.014,70.127c0.034,16.535,10.628,27.1,27.29,27.16
			c22.39,0.08,44.78,0.059,67.169,0.057c107.028-0.008,214.057-0.014,321.086-0.049c16.301-0.004,27.053-10.945,27.086-27.422
			c0.035-17.961,0.035-35.922,0.047-53.883c0.006-7.553,0-15.104,0-22.855H537.296c-0.536,2.016-0.991,3.66-1.409,5.313
			c-4.702,18.568-20.877,32.189-39.97,32.527c-24.351,0.432-48.719,0.41-73.071,0.037c-19.077-0.291-34.766-13.443-39.397-31.967
			c-0.518-2.066-1.168-4.102-1.765-6.174H237.626L237.626,680.725z"/>
	</g>
	<g>
		<defs>
			<rect id="SVGID_5_" y="0.003" width="1083.108" height="1068.107"/>
		</defs>
		<clipPath id="SVGID_6_">
			<use xlink:href="#SVGID_5_"  overflow="visible"/>
		</clipPath>
		<path clip-path="url(#SVGID_6_)" fill="none" stroke="#A8A8A8" stroke-width="18" stroke-miterlimit="10" d="M705.887,695.891
			c2.711-0.744,5.061-1.342,7.381-2.029c28.934-8.58,57.871-17.15,86.797-25.77c39.27-11.701,78.52-23.479,117.807-35.131
			c8.152-2.416,14.02-7.107,16.271-15.449c2.162-8.002,0.172-15.16-5.803-20.928c-6.713-6.479-14.586-7.078-23.273-4.492
			c-55.506,16.514-111.049,32.895-166.58,49.32c-10.951,3.24-21.902,6.484-32.6,9.652V695.891L705.887,695.891z"/>
	</g>
	<g>
		<defs>
			<rect id="SVGID_7_" y="0.003" width="1083.108" height="1068.107"/>
		</defs>
		<clipPath id="SVGID_8_">
			<use xlink:href="#SVGID_7_"  overflow="visible"/>
		</clipPath>
		<path clip-path="url(#SVGID_8_)" fill="none" stroke="#A8A8A8" stroke-width="18" stroke-miterlimit="10" d="M707.108,591.655
			c0,15.186,13.686,24.467,29.572,19.77c60.221-17.805,120.418-35.684,180.604-53.609c13.801-4.111,20.244-14.832,16.762-27.321
			c-3.291-11.795-15.479-17.49-29.129-13.475c-19.297,5.676-38.564,11.454-57.848,17.183
			c-41.148,12.22-82.314,24.386-123.439,36.687C712.795,574.129,707.108,581.555,707.108,591.655z"/>
	</g>
	<g>
		<defs>
			<rect id="SVGID_9_" y="0.003" width="1083.108" height="1068.107"/>
		</defs>
		<clipPath id="SVGID_10_">
			<use xlink:href="#SVGID_9_"  overflow="visible"/>
		</clipPath>
		<path clip-path="url(#SVGID_10_)" fill="none" stroke="#A8A8A8" stroke-width="18" stroke-miterlimit="10" d="M934.944,461.398
			c-0.271-15.043-13.555-24.392-29.094-19.818c-60.479,17.795-120.9,35.777-181.307,53.816
			c-13.479,4.024-20.166,15.008-16.807,26.672c3.639,12.635,15.197,18.178,29.416,14.018c14.127-4.134,28.23-8.345,42.346-12.528
			c46.104-13.659,92.217-27.284,138.301-41.011C928.934,479.231,935.124,471.37,934.944,461.398z"/>
	</g>
</g>
</svg>
