<svg xmlns="http://www.w3.org/2000/svg" xmlns:xlink="http://www.w3.org/1999/xlink" width="1083.11" height="1068.11" viewBox="0 0 1083.11 1068.11"><path fill="none" stroke="#A8A8A8" stroke-width="18" stroke-miterlimit="10" d="M237.807 481.585H679.83v186.14H237.808z"/><defs><path id="a" d="M0 .003h1083.108V1068.11H0z"/></defs><clipPath id="b"><use xlink:href="#a" overflow="visible"/></clipPath><path clip-path="url(#b)" fill="none" stroke="#A8A8A8" stroke-width="18" stroke-miterlimit="10" d="M680.275 467.584c0-13.18.046-25.474-.01-37.766-.08-17.46-10.674-28.07-27.99-28.076-44.762-.012-89.526-.005-134.29-.006h-8.03c2.127-2.046 4.194-2.72 6.28-3.338 38.358-11.35 76.717-22.7 115.08-34.037 10.935-3.232 17.135-9.793 17.916-19.02 1.366-16.128-12.442-27.025-28.716-22.252-46.16 13.54-92.258 27.293-138.383 40.952-12.886 3.816-25.783 7.595-39.557 11.65 0-16.155.037-31.355-.01-46.555-.052-16.935-10.71-27.752-27.563-27.772-50.175-.057-100.35-.053-150.524 0-15.884.015-26.8 10.955-26.824 26.95-.07 44.763-.03 89.526-.002 134.29 0 1.63.322 3.262.503 4.98h442.122zM237.626 680.726v7.128c0 23.375-.034 46.75.014 70.126.034 16.537 10.628 27.1 27.29 27.16 22.39.082 44.78.06 67.17.057 107.028-.008 214.057-.013 321.086-.048 16.3-.006 27.053-10.946 27.086-27.423.035-17.96.035-35.922.047-53.883.004-7.552 0-15.103 0-22.856H537.295c-.536 2.017-.99 3.66-1.41 5.314-4.7 18.567-20.876 32.19-39.97 32.527-24.35.43-48.718.408-73.07.036-19.077-.29-34.766-13.443-39.398-31.967-.517-2.068-1.168-4.102-1.764-6.175H237.626zM705.887 695.89c2.712-.743 5.06-1.34 7.38-2.028 28.935-8.58 57.873-17.15 86.797-25.77 39.27-11.7 78.52-23.478 117.808-35.13 8.15-2.417 14.02-7.11 16.272-15.45 2.16-8 .17-15.16-5.804-20.927-6.713-6.48-14.586-7.078-23.273-4.493-55.505 16.513-111.05 32.895-166.58 49.32-10.952 3.24-21.903 6.485-32.6 9.652v44.827zM707.108 591.654c0 15.187 13.685 24.467 29.572 19.77 60.22-17.804 120.418-35.684 180.603-53.61 13.802-4.11 20.244-14.83 16.762-27.32-3.29-11.795-15.48-17.49-29.128-13.475-19.298 5.675-38.565 11.454-57.85 17.182-41.146 12.22-82.312 24.387-123.437 36.688-10.835 3.24-16.522 10.665-16.522 20.764zM934.944 461.398c-.27-15.043-13.554-24.39-29.094-19.818-60.48 17.795-120.9 35.777-181.306 53.816-13.48 4.025-20.167 15.008-16.808 26.672 3.64 12.636 15.2 18.18 29.416 14.018 14.127-4.134 28.23-8.345 42.346-12.527 46.104-13.66 92.217-27.286 138.3-41.012 11.136-3.317 17.325-11.178 17.146-21.15z"/></svg>