<svg xmlns="http://www.w3.org/2000/svg" xmlns:xlink="http://www.w3.org/1999/xlink" width="1083.11" height="1068.11" viewBox="0 0 1083.11 1068.11"><defs><path id="a" d="M0 .003h1083.108V1068.11H0z"/></defs><clipPath id="b"><use xlink:href="#a" overflow="visible"/></clipPath><path clip-path="url(#b)" fill="#A8A8A8" d="M565.965 551.442c10.034 0 20 2.694 27.25 9.945L752.25 720.42c16.92 16.923 16.92 44.613 0 61.535-8.462 8.46-19.615 12.69-30.77 12.69s-22.306-4.23-30.767-12.69L531.68 622.922c-16.923-16.923-49.178-40.516 0-61.535l-.896.625-4.85 3.384 4.85-3.384.896-.625c7.388-5.156 20.9-9.945 34.285-9.945m0-18c-14.878 0-31.477 4.703-42.938 12.08-9.485 4.192-16.83 8.736-22.413 13.862-6.865 6.302-11.077 13.53-12.517 21.483-3.9 21.53 13.352 38.003 25.95 50.03 1.763 1.685 3.43 3.277 4.905 4.752l159.034 159.033c11.584 11.584 27.03 17.963 43.495 17.963 16.466 0 31.913-6.38 43.497-17.963s17.964-27.03 17.964-43.496c0-16.464-6.38-31.91-17.963-43.495L605.943 548.66c-9.955-9.956-23.78-15.218-39.978-15.218"/><path clip-path="url(#b)" fill="#A8A8A8" d="M384.114 219.38c102.725 0 186 83.274 186 186s-83.275 186-186 186-186-83.276-186-186 83.275-186 186-186m0 314c32.758 0 65.516-12.498 90.51-37.49 49.987-49.988 49.987-131.034 0-181.02-24.994-24.994-57.752-37.49-90.51-37.49s-65.516 12.496-90.51 37.49c-49.987 49.986-49.987 131.032 0 181.02 24.994 24.992 57.752 37.49 90.51 37.49m0-332c-27.532 0-54.25 5.395-79.412 16.038-24.294 10.275-46.11 24.982-64.838 43.71s-33.436 40.545-43.71 64.84c-10.644 25.16-16.04 51.88-16.04 79.41 0 27.533 5.396 54.25 16.04 79.412 10.274 24.295 24.98 46.11 43.71 64.84 18.73 18.728 40.544 33.435 64.838 43.71 25.162 10.643 51.88 16.04 79.412 16.04 27.532 0 54.25-5.397 79.412-16.04 24.294-10.275 46.11-24.982 64.838-43.71 18.73-18.73 33.436-40.545 43.71-64.84 10.644-25.16 16.04-51.88 16.04-79.41 0-27.533-5.396-54.25-16.04-79.412-10.274-24.295-24.98-46.11-43.71-64.84-18.73-18.728-40.544-33.435-64.838-43.71-25.162-10.643-51.88-16.04-79.412-16.04m0 314c-29.382 0-57.005-11.44-77.782-32.217-20.776-20.776-32.218-48.4-32.218-77.78 0-29.383 11.442-57.006 32.218-77.783 20.777-20.776 48.4-32.218 77.782-32.218s57.005 11.44 77.782 32.217c20.776 20.777 32.218 48.4 32.218 77.782 0 29.38-11.442 57.004-32.218 77.78-20.777 20.777-48.4 32.22-77.782 32.22"/></svg>