<svg xmlns="http://www.w3.org/2000/svg" xmlns:xlink="http://www.w3.org/1999/xlink" width="1083.11" height="1068.11" viewBox="0 0 1083.11 1068.11"><defs><path id="a" d="M0 .003h1083.108V1068.11H0z"/></defs><clipPath id="b"><use xlink:href="#a" overflow="visible"/></clipPath><path clip-path="url(#b)" fill="#A8A8A8" d="M454.124 258.01c57.62 0 104.5 46.878 104.5 104.5 0 57.62-46.88 104.5-104.5 104.5s-104.5-46.88-104.5-104.5c0-57.622 46.88-104.5 104.5-104.5m0-18c-67.547 0-122.5 54.952-122.5 122.5 0 67.546 54.953 122.5 122.5 122.5s122.5-54.954 122.5-122.5c0-67.548-54.953-122.5-122.5-122.5"/><path clip-path="url(#b)" fill="#A8A8A8" d="M413.446 491.877c12.703 4.613 26.4 7.133 40.678 7.133 14.218 0 27.863-2.5 40.522-7.078 29.866 11.812 57.792 36.584 81.12 72.582 30.592 47.21 48.856 107.02 48.856 159.996 0 89.56-52.584 129.5-170.5 129.5-55.36 0-95.83-9.2-123.723-28.13-31.476-21.36-46.776-55.174-46.776-103.37 0-52.834 18.258-112.26 48.84-158.967 23.257-35.522 51.134-59.98 80.982-71.666m-.24-19.237l-6.322 2.476c-33.464 13.102-64.405 40.27-89.48 78.567-32.423 49.52-51.78 112.632-51.78 168.827 0 26.936 4.313 49.562 13.185 69.17 9.074 20.054 23.03 36.572 41.482 49.093 30.97 21.02 74.748 31.237 133.83 31.237 63.588 0 109.498-11.394 140.356-34.83 16.384-12.445 28.735-28.513 36.714-47.76 7.69-18.558 11.43-39.79 11.43-64.91 0-56.31-19.346-119.78-51.752-169.785-25.133-38.786-56.118-66.287-89.604-79.53l-6.334-2.507-6.407 2.316c-11.022 3.985-22.596 6.006-34.4 6.006-11.856 0-23.476-2.036-34.535-6.052l-6.383-2.318zM701.123 258.888c41.12 0 74.576 33.455 74.576 74.577 0 41.12-33.456 74.576-74.577 74.576s-74.576-33.454-74.576-74.575c0-41.122 33.455-74.577 74.576-74.577m0-18c-51.047 0-92.576 41.53-92.576 92.577s41.53 92.576 92.576 92.576 92.576-41.528 92.576-92.575c0-51.047-41.53-92.577-92.577-92.577"/><path clip-path="url(#b)" fill="#A8A8A8" d="M732.88 434.22c18.55 8.563 36.89 24.603 52.906 46.777 23.95 33.155 38.25 74.128 38.25 109.603 0 33.814-12.644 60.118-37.577 78.18-21.2 15.357-50.938 23.814-83.733 23.814-18.948 0-36.878-2.135-52.892-6.16-6.396-45.012-23.526-91.567-48.48-130.076-4.903-7.565-10.013-14.658-15.298-21.296 7.2-17.255 16.98-34.41 28.894-50.268 17.467-23.246 37.28-40.45 56.606-49.77 9.26 3.248 19.21 5.02 29.568 5.02 11.178 0 21.88-2.066 31.757-5.823m.673-19.513l-7.073 2.69c-8.1 3.083-16.633 4.646-25.355 4.646-8.088 0-16.03-1.348-23.612-4.007l-7.048-2.472-6.73 3.245c-22.29 10.75-44.135 29.828-63.175 55.17-12.713 16.92-23.18 35.138-31.114 54.148l-4.098 9.818 6.626 8.324c4.978 6.254 9.78 12.94 14.274 19.875 23.388 36.09 39.64 79.708 45.766 122.818l1.702 11.977 11.73 2.95c17.695 4.447 36.968 6.702 57.28 6.702 36.558 0 70.045-9.672 94.29-27.235 14.86-10.763 26.232-24.208 33.804-39.962 7.442-15.483 11.216-33.246 11.216-52.796 0-39.12-15.573-84.034-41.658-120.145-17.658-24.444-38.39-42.625-59.954-52.578l-6.87-3.17z"/></svg>