<svg xmlns="http://www.w3.org/2000/svg" xmlns:xlink="http://www.w3.org/1999/xlink" width="1083.11" height="1068.11" viewBox="0 0 1083.11 1068.11"><defs><path id="a" d="M0 .003h1083.108V1068.11H0z"/></defs><clipPath id="b"><use xlink:href="#a" overflow="visible"/></clipPath><path clip-path="url(#b)" fill="#A8A8A8" d="M571.76 188.61c2.99 0 6.123.605 9.264 1.896 9.394 3.862 12.71 11.4 12.69 21.106-.08 35.236-.022 70.473-.046 105.71 0 2.03-.285 4.06-.455 6.312H551.48c-.197-1.805-.51-3.347-.51-4.89-.026-36.164-.107-72.328.025-108.492.048-12.89 9.383-21.64 20.766-21.64m-151.49 40.482c6.946 0 13.136 3.91 17.618 11.592 13.547 23.217 26.878 46.56 40.294 69.852 5.993 10.405 11.976 20.817 18.423 32.023l-36.523 21.125c-1.09-1.39-2.06-2.36-2.725-3.507-18.786-32.5-37.612-64.978-56.267-97.553-7.09-12.38-3.623-24.355 8.442-30.652 3.688-1.925 7.304-2.88 10.738-2.88m304.27.13c7.257 0 14.52 3.902 19.015 11.645 3.4 5.86 4.08 12.17.8 17.963-19.764 34.883-39.797 69.612-60.22 105.23l-36.65-21.187c.578-1.502.892-2.808 1.534-3.924 18.86-32.76 37.663-65.553 56.688-98.218 4.48-7.693 11.65-11.51 18.832-11.51M306.3 341.773c3.075 0 6.207.808 9.226 2.53 33.21 18.932 66.225 38.21 99.3 57.38.366.213.566.712 1.176 1.515l-20.84 36.124c-1.434-.667-2.46-1.053-3.398-1.595-31.697-18.324-63.427-36.59-95.054-55.033-13.768-8.03-15.728-23.264-4.734-34.46 4.064-4.136 9.11-6.46 14.325-6.46m531.34.333c8.23 0 15.39 5.058 19.205 14.214 3.91 9.385 1.62 19.357-7.093 24.507-33.32 19.7-66.903 38.954-101.163 58.825l-21.098-36.6c1.328-1.083 2.262-2.077 3.39-2.732 31.51-18.273 62.987-36.602 94.59-54.712 4.135-2.37 8.27-3.503 12.17-3.503m-264.246 10.718c4.016 0 8.064.148 12.136.448 64.978 4.795 121.762 57.22 133.14 122.435 6.017 34.48.65 67.04-15.543 97.774-15.258 28.954-31.205 57.645-40.782 89.07-6.067 19.907-10.003 40.464-14.896 60.73-.814 3.377-1.438 6.816-2.484 10.12-4.733 14.955-11.68 20.457-27.385 20.805-5.97.132-11.94.172-17.91.172-9.35 0-18.703-.1-28.053-.1v.076c-8.87 0-17.743.043-26.615.043-5.52 0-11.042-.017-16.563-.07-19.67-.192-27.12-5.966-31.688-25.275-3.84-16.24-6.42-32.795-10.672-48.916-9.355-35.46-25.344-68.197-43.02-100.125-22.276-40.238-27.86-82.164-13.162-126.165 20.477-61.31 77.748-101.022 143.496-101.022m27.995 412.35c6.8 0 13.6.01 20.397.036 8.462.032 11.28 2.724 11.343 10.43.063 7.985-2.988 10.93-11.66 10.94-16.5.016-32.997.024-49.496.024-16.94 0-33.88-.01-50.82-.03-8.363-.012-11.178-2.756-11.248-10.56-.073-8.008 2.566-10.754 10.867-10.795 7.076-.035 14.15-.045 21.228-.045 9.877 0 19.754.02 29.63.02 9.92-.003 19.84-.02 29.76-.02m-29.46 32.02c16.434 0 32.873.01 49.308.03 8.918.01 11.86 2.732 11.894 10.617.035 7.97-2.97 10.824-11.68 10.847-6.898.02-13.797.023-20.695.023-9.785 0-19.57-.012-29.354-.012h-.96c-9.423 0-18.844.013-28.266.013-6.94 0-13.883-.006-20.824-.026-8.698-.026-11.527-2.807-11.45-10.974.076-7.793 2.8-10.465 11.237-10.48 16.93-.026 33.856-.04 50.79-.04m.197 32.265c16.783 0 33.574.013 50.358.042 7.798.014 10.585 2.894 10.646 10.406.064 7.826-2.862 10.836-10.96 10.87-6.975.03-13.945.038-20.92.038-9.745 0-19.494-.017-29.24-.017-9.923 0-19.846.013-29.77.013-7.028 0-14.058-.007-21.086-.028-8.42-.024-11.173-2.674-11.248-10.505-.077-8.027 2.562-10.77 10.867-10.78 17.12-.025 34.234-.04 51.354-.04m40.235 32.438c-2.086 4.51-3.153 8.705-5.603 11.81-7.585 9.61-21.48 14.432-35.37 14.432-13.675 0-27.348-4.674-34.992-14.052-2.577-3.16-3.82-7.408-6.196-12.19h82.16m-40.6-691.284c-10.455 0-20.194 4.022-27.424 11.322-7.274 7.345-11.302 17.38-11.342 28.254-.105 28.687-.075 57.832-.047 86.02.007 7.516.015 15.033.02 22.55.002 2.256.267 4.196.46 5.612.054.39.11.792.157 1.214l1.457 13.385c-5.776 1.276-11.462 2.842-17.04 4.694l-5.797-10.075-5.975-10.388c-4.247-7.386-8.347-14.516-12.452-21.643-3.78-6.564-7.554-13.13-11.328-19.7-9.47-16.478-19.26-33.52-29.016-50.24-7.61-13.04-19.698-20.52-33.166-20.52-6.394 0-12.81 1.656-19.066 4.922-10.155 5.3-17.36 13.724-20.287 23.724-2.984 10.188-1.367 21.492 4.553 31.83 15.197 26.537 30.753 53.435 45.798 79.447l10.506 18.17c1.232 2.13 2.532 3.676 3.482 4.804.21.25.437.516.67.813l6.89 8.774c-5.628 5.578-10.82 11.538-15.556 17.847l-6.804-8.956c-.752-1.134-2.74-4.12-6.604-6.36-7.743-4.487-15.484-8.982-23.225-13.476-24.922-14.472-50.693-29.436-76.187-43.97-5.614-3.2-11.886-4.89-18.14-4.89-10.014 0-19.662 4.208-27.166 11.85-9.17 9.334-13.513 21.51-11.92 33.406 1.6 11.927 9.045 22.574 20.428 29.213 23.84 13.904 48.12 27.926 71.603 41.487 7.838 4.526 15.675 9.052 23.51 13.58 1.462.846 2.755 1.417 3.794 1.876.306.136.64.282 1.01.455l14.95 6.963 8.242-14.284 5.534-9.59c-1.242 3.09-2.395 6.23-3.46 9.415-15.817 47.353-10.943 94.653 14.487 140.587 15.15 27.364 31.912 60.17 41.364 95.997 2.29 8.682 4.066 17.5 5.947 26.838 1.422 7.062 2.893 14.362 4.612 21.63 2.172 9.182 5.875 20.635 15.33 28.79-2.734 5.953-2.68 11.814-2.66 14.196.067 7.313 1.862 12.343 3.812 15.716-3.725 6.382-3.79 13.058-3.814 15.647-.026 2.682-.093 9.757 3.83 16.446-3.92 6.674-3.853 13.776-3.828 16.465.13 13.574 6.182 19.26 8.17 21.126 4.135 3.885 8.99 5.672 13.098 6.496l.908 1.828c.583 1.176 1.123 2.417 1.694 3.733 1.585 3.65 3.38 7.788 6.672 11.824 10.553 12.946 28.85 20.678 48.942 20.678 20.48 0 38.985-7.956 49.5-21.282 3.27-4.143 4.997-8.49 6.385-11.984.486-1.227.946-2.384 1.426-3.42l.605-1.308c5.758-1.073 10.53-3.502 14.24-7.26 5.105-5.166 7.656-12.273 7.586-21.12-.05-6.144-1.37-11.42-3.934-15.76 2.642-4.46 3.96-9.898 3.935-16.238-.025-6.22-1.346-11.542-3.934-15.91 2.663-4.495 3.983-9.972 3.934-16.355-.04-5.162-.975-9.704-2.784-13.587 8.01-7.082 11.683-16.45 13.782-23.08.958-3.026 1.6-5.918 2.17-8.47.21-.956.422-1.912.65-2.86 1.548-6.408 3.01-12.886 4.425-19.15 3.188-14.117 6.197-27.45 10.19-40.556 8.154-26.753 21.224-51.426 35.06-77.55 1.478-2.79 2.957-5.583 4.43-8.378 18.152-34.452 23.99-71.212 17.35-109.26-2.353-13.493-6.488-26.69-12.217-39.25l1.54 2.674 7.268 12.607 9.014 15.637 15.61-9.055c9.356-5.425 18.66-10.805 27.923-16.16 24.13-13.952 49.082-28.38 73.373-42.74 16.108-9.523 22.09-28.82 14.55-46.925-6.5-15.6-20.227-25.292-35.82-25.292-7.2 0-14.304 1.98-21.12 5.886-25.23 14.46-50.784 29.29-75.495 43.634-6.39 3.71-12.782 7.418-19.174 11.125-2.288 1.326-3.94 2.783-5.036 3.747-.218.193-.447.4-.704.61l-11.857 9.675 3.948 6.85c-4.835-6.815-10.192-13.31-16.026-19.41l7.573-13.21c5.145-8.973 10.266-17.89 15.363-26.767 15.476-26.95 30.094-52.406 44.9-78.54 6.255-11.04 5.93-24.114-.89-35.87-7.49-12.907-20.418-20.612-34.585-20.612-14.072 0-26.928 7.645-34.386 20.45-14.966 25.696-30.03 51.882-44.6 77.205-4.043 7.03-8.087 14.06-12.134 21.09-1.306 2.265-2.004 4.318-2.467 5.677-.085.25-.17.51-.274.784l-2.94 7.66c-5.787-2.08-11.673-3.823-17.622-5.21l1.044-13.898c.047-.613.104-1.205.158-1.785.162-1.71.347-3.648.348-5.862.01-13.363.007-26.725.005-40.087-.004-21.503-.008-43.738.04-65.596.056-24.332-14.916-34.123-23.847-37.794-5.24-2.155-10.66-3.247-16.105-3.247"/></svg>