<svg xmlns="http://www.w3.org/2000/svg" xmlns:xlink="http://www.w3.org/1999/xlink" width="1083.11" height="1068.11" viewBox="0 0 1083.11 1068.11"><defs><path id="a" d="M0 .003h1083.108V1068.11H0z"/></defs><clipPath id="b"><use xlink:href="#a" overflow="visible"/></clipPath><path clip-path="url(#b)" fill="none" stroke="#A9A9A9" stroke-width="18" stroke-linecap="round" stroke-linejoin="round" stroke-miterlimit="10" d="M188.432 538.04c0 195.03 162.6 353.176 363.155 353.176 2.9 0 5.82-.023 8.718-.095 42.836-29.206 128.953-100.785 57.153-164.553-92.946-82.48-332.192-101.046-347.63-269.764C258.34 331.7 389.484 238.286 486.403 190.515c-169.448 29.854-297.97 174.077-297.97 347.526m284.594-136.433c-63.49 151.9 169.66 214.162 260.438 333.282 59.97 78.584-43.887 127.327-121.504 151.468 171.855-27.973 302.72-173.263 302.72-348.317 0-108.187-49.942-204.95-128.676-269.75-124.55 29.233-276.522 46.234-312.977 133.317"/></svg>